<svg aria-hidden="true" style="position: absolute; width: 0; height: 0; overflow: hidden;" version="1.1"
    xmlns="http://www.w3.org/2000/svg" xmlns:xlink="http://www.w3.org/1999/xlink">
    <defs>
        <symbol id="envelope" viewBox="0 0 32 32">
            <path
                d="M29.486 24.502c-0.62 0.596-1.449 0.981-2.347 0.998-7.279 0.045-14.558 0.045-21.837 0-1.802-0.034-3.422-1.595-3.456-3.456-0.014-2.093-0.023-4.567-0.023-7.043s0.008-4.951 0.025-7.424l-0.002 0.38c0.034-1.803 1.594-3.421 3.456-3.456 7.279-0.045 14.558-0.045 21.837 0 1.808 0.034 3.422 1.595 3.456 3.456 0.027 4.696 0.027 9.391 0 14.087-0.013 0.695-0.251 1.361-0.646 1.92 0.016 0.133-0.056 0.235-0.131 0.336-0.084 0.113-0.202 0.186-0.332 0.203zM19.784 15.384l-0.563 0.543c-1.671 1.595-4.508 1.663-6.251-0.002l-0.123-0.118-8.883 8.252c0.388 0.268 0.853 0.433 1.35 0.442 7.271 0.045 14.541 0.045 21.812 0 0.553-0.010 1.082-0.219 1.509-0.561l-8.851-8.556zM3.31 6.588c-0.282 0.395-0.455 0.871-0.465 1.381-0.030 4.687-0.030 9.375 0 14.062 0.009 0.472 0.162 0.925 0.419 1.313l8.864-8.233-8.817-8.523zM29.028 6.458l-8.525 8.23 8.779 8.486c0.189-0.329 0.303-0.722 0.312-1.141l0-0.003c0.027-4.688 0.027-9.375 0-14.063-0.011-0.555-0.223-1.085-0.567-1.51zM28.26 5.811c-0.326-0.187-0.716-0.301-1.131-0.31l-0.003-0c-7.26-0.045-14.52-0-21.779-0-0.47 0.003-0.923 0.149-1.311 0.398 3.219 3.114 6.422 6.244 9.661 9.337 1.304 1.213 3.489 1.252 4.832-0.030l9.731-9.395z">
            </path>
        </symbol>
        <symbol id="mobile" viewBox="0 0 32 32">
            <path fill="#c2b8b9" style="fill: var(--color1, #c2b8b9)"
                d="M25.153 3.269c0-1.514-1.239-2.753-2.753-2.753h-12.8c-1.514 0-2.753 1.239-2.753 2.753v3.579l9.153 1.376 9.153-1.376v-3.579z">
            </path>
            <path fill="#605353" style="fill: var(--color2, #605353)"
                d="M6.847 6.847v18.305l9.153 1.376 9.153-1.376v-18.305z"></path>
            <path fill="#c2b8b9" style="fill: var(--color1, #c2b8b9)"
                d="M6.847 28.731c0 1.514 1.239 2.753 2.753 2.753h12.8c1.514 0 2.753-1.239 2.753-2.753v-3.579h-18.305v3.578z">
            </path>
            <path fill="#fff" style="fill: var(--color3, #fff)"
                d="M17.032 28.318c0 0.57-0.462 1.032-1.032 1.032s-1.032-0.462-1.032-1.032c0-0.57 0.462-1.032 1.032-1.032s1.032 0.462 1.032 1.032z">
            </path>
            <path fill="#fff" style="fill: var(--color3, #fff)"
                d="M16 18.615c-2.927 0-5.299 1.725-5.299 3.854h10.598c0-2.128-2.372-3.854-5.299-3.854z"></path>
            <path fill="#fad4c6" style="fill: var(--color4, #fad4c6)"
                d="M19.441 13.178c0 1.938-1.571 3.51-3.51 3.51s-3.51-1.571-3.51-3.51c0-1.938 1.571-3.51 3.51-3.51s3.51 1.571 3.51 3.51z">
            </path>
            <path fill="#53b4c1;" style="fill: var(--color5, #000)"
                d="M16 17.22c2.225 0 4.035-1.81 4.035-4.035s-1.81-4.035-4.035-4.035-4.035 1.81-4.035 4.035 1.81 4.035 4.035 4.035zM16 10.182c1.656 0 3.003 1.347 3.003 3.003s-1.347 3.003-3.003 3.003-3.003-1.347-3.003-3.003 1.347-3.003 3.003-3.003zM21.698 22.141c-0.945-2.334-3.182-3.841-5.698-3.841s-4.753 1.508-5.698 3.841c-0.022 0.055-0.034 0.119-0.034 0.185 0 0.285 0.231 0.516 0.516 0.516 0.212 0 0.394-0.128 0.474-0.311l0.001-0.003c0.786-1.942 2.647-3.197 4.741-3.197s3.955 1.255 4.741 3.197c0.079 0.191 0.263 0.323 0.479 0.323 0 0 0 0 0 0v0c0.285-0 0.516-0.231 0.516-0.516 0-0.070-0.014-0.136-0.039-0.197l0.001 0.003zM16 26.768c-0.854 0-1.548 0.695-1.548 1.548s0.695 1.548 1.548 1.548 1.548-0.695 1.548-1.548-0.695-1.548-1.548-1.548zM16 28.833c-0.285 0-0.516-0.232-0.516-0.516s0.232-0.516 0.516-0.516c0.285 0 0.516 0.232 0.516 0.516s-0.232 0.516-0.516 0.516zM13.823 4.199h4.355c0.285 0 0.516-0.231 0.516-0.516s-0.231-0.516-0.516-0.516h-4.355c-0.285 0-0.516 0.231-0.516 0.516s0.231 0.516 0.516 0.516z">
            </path>
            <path fill="#084029;" style="fill: var(--color5, ##084029)"
                d="M22.334 0h-12.669c-1.837 0-3.331 1.494-3.331 3.331v25.337c0 1.837 1.494 3.331 3.331 3.331h12.669c1.837 0 3.331-1.494 3.331-3.331v-25.337c-0-1.837-1.494-3.331-3.331-3.331zM7.367 7.366h17.267v17.267h-17.267v-17.267zM9.666 1.032h12.669c1.268 0 2.299 1.031 2.299 2.299v3.003h-17.267v-3.003c0-1.268 1.031-2.299 2.299-2.299zM22.334 30.968h-12.669c-1.268 0-2.299-1.031-2.299-2.299v-3.003h17.267v3.003c0 1.268-1.031 2.299-2.299 2.299z">
            </path>
        </symbol>
        <symbol id="close_40px" viewBox="0 0 32 32">
            <path
                d="M23.734 10.304l-1.504-1.504-5.963 5.962-5.962-5.962-1.504 1.504 5.962 5.962-5.962 5.963 1.504 1.504 5.962-5.963 5.963 5.963 1.504-1.504-5.963-5.963 5.963-5.962z">
            </path>
        </symbol>
        <symbol id="envelope-black" viewBox="0 0 32 32">
            <path
                d="M26.667 5.333h-21.333c-1.467 0-2.652 1.2-2.652 2.667l-0.014 16c0 1.467 1.2 2.667 2.667 2.667h21.333c1.467 0 2.667-1.2 2.667-2.667v-16c0-1.467-1.2-2.667-2.667-2.667zM26.133 11.001l-9.426 5.892c-0.201 0.126-0.446 0.2-0.708 0.2s-0.506-0.075-0.713-0.204l0.006 0.003-9.426-5.892c-0.336-0.201-0.557-0.562-0.557-0.975 0-0.625 0.507-1.132 1.132-1.132 0.233 0 0.449 0.070 0.629 0.19l-0.004-0.003 8.933 5.586 8.933-5.588c0.176-0.118 0.392-0.188 0.624-0.188 0.625 0 1.132 0.507 1.132 1.132 0 0.413-0.221 0.775-0.552 0.972l-0.005 0.003z">
            </path>
        </symbol>
        <symbol id="phone-black" viewBox="0 0 32 32">
            <path
                d="M24.882 19.774l-3.268-0.373c-0.090-0.011-0.194-0.018-0.3-0.018-0.707 0-1.347 0.287-1.81 0.75l-2.368 2.368c-3.669-1.894-6.585-4.81-8.427-8.372l-0.051-0.108 2.382-2.377c0.463-0.463 0.75-1.103 0.75-1.81 0-0.106-0.006-0.21-0.019-0.312l0.001 0.012-0.373-3.243c-0.155-1.287-1.24-2.276-2.557-2.276-0.001 0-0.002 0-0.003 0h-2.226c-1.454 0-2.663 1.209-2.574 2.661 0.683 10.987 9.47 19.762 20.444 20.444 1.452 0.089 2.663-1.12 2.663-2.574v-2.226c0-0.004 0-0.008 0-0.012 0-1.308-0.985-2.386-2.253-2.532l-0.012-0.001z">
            </path>
        </symbol>
        <symbol id="person" viewBox="0 0 32 32">
            <path
                d="M16 16c2.946 0 5.333-2.388 5.333-5.333s-2.388-5.333-5.333-5.333v0c-2.946 0-5.333 2.388-5.333 5.333s2.388 5.333 5.333 5.333v0zM16 18.667c-3.561 0-10.667 1.787-10.667 5.333v1.333c0 0.732 0.599 1.333 1.333 1.333h18.667c0.732 0 1.333-0.601 1.333-1.333v-1.333c0-3.547-7.108-5.333-10.667-5.333z">
            </path>
        </symbol>
        <symbol id="checkbox" viewBox="0 0 32 32">
            <path fill="#fff" style="fill: var(--color3, #fff); stroke: var(--color3, #fff)" stroke="#fff"
                stroke-linejoin="miter" stroke-linecap="butt" stroke-miterlimit="4" stroke-width="0.4267"
                d="M6.308 16.538l-0.147-0.141-0.147 0.139-2.057 1.95 0.162 0.156 7.605 7.253 0.147-0.141 16.171-15.426-0.162-0.154-2.029-1.935-0.147 0.141-13.98 13.325-5.417-5.167z">
            </path>
        </symbol>
        <symbol id="menu" viewBox="0 0 32 32">
            <path fill="none" stroke="#4a5568" style="stroke: var(--color6, #4a5568)" stroke-linejoin="round"
                stroke-linecap="round" stroke-miterlimit="4" stroke-width="2.6667"
                d="M5.333 8h21.333M5.333 16h21.333M5.333 24h21.333"></path>
        </symbol>
        <symbol id="close_X" viewBox="0 0 32 32">
            <path
                d="M32 3.223l-3.223-3.223-12.777 12.777-12.777-12.777-3.223 3.223 12.777 12.777-12.777 12.777 3.223 3.223 12.777-12.777 12.777 12.777 3.223-3.223-12.777-12.777 12.777-12.777z">
            </path>
        </symbol>
        <symbol id="linkedin" viewBox="0 0 32 32">
            <path fill="#afb1b8" style="fill: var(--color7, #afb1b8)"
                d="M31.992 32h0.008v-11.738c0-5.741-1.235-10.163-7.947-10.163-3.227 0-5.392 1.77-6.277 3.45h-0.093v-2.914h-6.365v21.363h6.627v-10.578c0-2.786 0.528-5.48 3.978-5.48 3.398 0 3.45 3.179 3.45 5.658v10.402h6.619zM0.528 10.635h6.635v21.365h-6.635v-21.365zM3.843 0c-2.123 0-3.843 1.721-3.843 3.843v0c0 2.12 1.722 3.878 3.843 3.878 2.12 0 3.842-1.757 3.842-3.878s-1.72-3.841-3.841-3.843h-0z">
            </path>
        </symbol>
        <symbol id="instagram" viewBox="0 0 32 32">
            <path fill="#afb1b8" style="fill: var(--color7, #afb1b8)"
                d="M31.968 9.408c-0.074-1.701-0.349-2.869-0.742-3.882-0.424-1.111-1.054-2.059-1.85-2.837l-0.001-0.001c-0.78-0.792-1.724-1.419-2.778-1.827l-0.054-0.018c-1.019-0.394-2.181-0.667-3.882-0.742-1.712-0.082-2.256-0.101-6.602-0.101-4.344 0-4.888 0.019-6.595 0.094-1.699 0.074-2.869 0.349-3.88 0.742-1.112 0.424-2.060 1.054-2.839 1.85l-0.001 0.001c-0.791 0.78-1.418 1.724-1.825 2.778l-0.018 0.054c-0.395 1.019-0.669 2.181-0.744 3.882-0.082 1.712-0.101 2.256-0.101 6.602 0 4.344 0.019 4.888 0.094 6.595 0.075 1.701 0.35 2.869 0.744 3.882 0.426 1.11 1.055 2.057 1.849 2.837l0.001 0.001c0.8 0.813 1.77 1.443 2.832 1.843 1.019 0.395 2.182 0.67 3.882 0.744 1.707 0.075 2.251 0.094 6.595 0.094 4.346 0 4.89-0.019 6.595-0.094 1.701-0.074 2.869-0.349 3.882-0.742 2.157-0.85 3.833-2.526 4.664-4.628l0.019-0.055c0.394-1.019 0.669-2.182 0.744-3.882 0.075-1.707 0.093-2.251 0.093-6.595s-0.006-4.888-0.080-6.595zM29.088 22.474c-0.070 1.563-0.333 2.406-0.55 2.97-0.552 1.399-1.64 2.486-3.004 3.024l-0.036 0.012c-0.56 0.219-1.411 0.482-2.968 0.55-1.688 0.075-2.194 0.094-6.464 0.094-4.269 0-4.782-0.019-6.464-0.094-1.563-0.069-2.406-0.331-2.97-0.55-0.721-0.269-1.334-0.676-1.836-1.192l-0.001-0.001c-0.517-0.503-0.924-1.117-1.184-1.803l-0.011-0.034c-0.218-0.563-0.48-1.413-0.549-2.97-0.075-1.688-0.094-2.195-0.094-6.464 0-4.27 0.019-4.784 0.094-6.464 0.069-1.563 0.331-2.406 0.549-2.97 0.269-0.722 0.678-1.337 1.198-1.837l0.002-0.002c0.504-0.517 1.119-0.923 1.806-1.182l0.034-0.011c0.56-0.219 1.411-0.48 2.968-0.55 1.688-0.074 2.195-0.093 6.464-0.093 4.275 0 4.782 0.019 6.464 0.093 1.563 0.069 2.406 0.331 2.97 0.55 0.693 0.256 1.325 0.662 1.837 1.194 0.531 0.52 0.938 1.144 1.195 1.84 0.218 0.56 0.48 1.411 0.549 2.968 0.075 1.688 0.094 2.194 0.094 6.464 0 4.269-0.019 4.768-0.094 6.458z">
            </path>
            <path fill="#afb1b8" style="fill: var(--color7, #afb1b8)"
                d="M16.059 7.782c-4.539 0.002-8.218 3.682-8.219 8.221v0c0.091 4.471 3.737 8.060 8.221 8.060s8.13-3.589 8.221-8.052l0-0.009c-0.001-4.54-3.681-8.22-8.221-8.221h-0zM16.059 21.334c-2.945-0-5.332-2.388-5.332-5.333s2.388-5.333 5.333-5.333c0 0 0.001 0 0.001 0h-0c2.946 0 5.334 2.388 5.334 5.334s-2.388 5.334-5.334 5.334v0zM26.525 7.458c0 1.060-0.86 1.92-1.92 1.92s-1.92-0.86-1.92-1.92v0c0-1.060 0.86-1.92 1.92-1.92s1.92 0.86 1.92 1.92v0z">
            </path>
        </symbol>
    </defs>
</svg>